<?xml version="1.0" encoding="utf-8"?>
<!-- Generator: Adobe Illustrator 16.2.1, SVG Export Plug-In . SVG Version: 6.00 Build 0)  -->
<!DOCTYPE svg PUBLIC "-//W3C//DTD SVG 1.1//EN" "http://www.w3.org/Graphics/SVG/1.1/DTD/svg11.dtd">
<svg version="1.1" id="Layer_1" xmlns="http://www.w3.org/2000/svg" xmlns:xlink="http://www.w3.org/1999/xlink" x="0px" y="0px"
	 width="180px" height="71px" viewBox="0 0 180 71" enable-background="new 0 0 180 71" xml:space="preserve">
<rect fill="none" width="180" height="71"/>
<path fill="#FFFFFF" d="M95.555,26.938c-1.664-1.339-4.062-2.35-6.936-2.35c-4.143,0-7.787,1.748-9.749,4.168l-0.187,0.229v-3.908
	H70.1v23.983h8.584V37.117c0-3.684,2.231-5.884,5.971-5.884c3.284,0,5.02,1.633,5.02,4.72v13.107h8.585V33.192
	C98.259,30.485,97.35,28.38,95.555,26.938z"/>
<g>
	<path fill="#FFFFFF" d="M128.566,28.716l-0.062,0.077l-0.122,0.153V28.75v-0.209v-3.464h-8.58v23.983h8.584V37.458
		c0-2.526,1.059-4.37,3.143-5.479c1.505-0.801,3.5-1.207,5.934-1.207c1.615,0,2.961,0.187,3.521,0.277v-6.237
		c-0.83-0.148-1.726-0.224-2.659-0.224C134.116,24.589,130.561,26.261,128.566,28.716z"/>
</g>
<path fill="#FFFFFF" d="M117.713,29.884v-4.807h-6.208v-5.264h-8.585v5.264h-3.545v4.807h3.545v13.454c0,2.135,0.76,3.607,2.318,4.5
	c1.289,0.739,3.143,1.107,5.828,1.161c2.351,0.047,5.27,0.062,6.414,0.062h0.231v-6.416h-0.121
	c-0.669,0.002-2.016,0.004-2.833,0.004c-2.556,0-3.254-0.627-3.254-2.914v-9.851H117.713z"/>
<g>
	<path fill="#FFFFFF" d="M172.71,42.951c0.704-1.516,1.099-3.262,1.177-5.191h-9.248c-0.143,2.312-1.006,4.085-2.513,5.191H172.71z"
		/>
	<path fill="#FFFFFF" d="M157.605,44.253c-4.551-0.003-7.059-2.698-7.059-7.19c0-4.49,2.508-7.175,7.059-7.178v-0.001h14.387
		c-0.625-0.959-1.4-1.798-2.331-2.49c-2.735-2.038-6.79-3.071-12.052-3.073h-0.004c-5.264,0.002-9.32,1.035-12.056,3.073
		c-2.813,2.095-4.239,5.488-4.239,9.668c0,4.183,1.426,7.588,4.239,9.684c2.734,2.037,6.789,3.07,12.05,3.072
		c5.269-0.002,9.325-1.035,12.062-3.072c0.93-0.691,1.706-1.531,2.329-2.492L157.605,44.253L157.605,44.253z"/>
	<path fill="#FFFFFF" d="M162.131,31.186c1.512,1.108,2.373,2.892,2.51,5.216h9.246c-0.072-1.94-0.467-3.696-1.174-5.216H162.131z"
		/>
</g>
<path fill="#FFFFFF" d="M24.978,40.125c-0.929,2.625-3.184,4.126-6.577,4.128c-4.552-0.003-7.059-2.698-7.059-7.19
	c0-4.49,2.507-7.175,7.059-7.178c3.408,0.001,5.669,1.509,6.59,4.15h9.427c-0.539-2.794-1.864-5.08-3.962-6.642
	c-2.735-2.038-6.789-3.071-12.051-3.073H18.4c-5.264,0.002-9.32,1.035-12.054,3.073c-2.814,2.095-4.241,5.488-4.241,9.669
	s1.427,7.586,4.241,9.683c2.733,2.037,6.787,3.071,12.048,3.071c5.268,0,9.325-1.034,12.061-3.071
	c2.089-1.558,3.411-3.837,3.955-6.62H24.978z"/>
<path fill="#FFFFFF" d="M57.89,41.881c-1.187,1.526-3.091,2.37-5.635,2.372c-3.792-0.003-6.164-1.873-6.852-5.093h12.428
	l10.59-0.001c0.085-0.673,0.128-1.373,0.128-2.097c-0.001-4.182-1.427-7.575-4.239-9.669c-2.735-2.038-6.789-3.071-12.051-3.073
	h-0.004c-5.265,0.002-9.321,1.035-12.055,3.073c-2.813,2.095-4.24,5.488-4.24,9.669s1.427,7.586,4.24,9.683
	c2.733,2.037,6.788,3.071,12.049,3.071c5.268,0,9.325-1.034,12.061-3.071c1.631-1.218,2.796-2.872,3.487-4.864H57.89z
	 M52.255,29.885c3.804,0.002,6.18,1.878,6.856,5.117H45.396C46.073,31.763,48.45,29.887,52.255,29.885z"/>
</svg>
