<?xml version="1.0" encoding="utf-8"?>
<!-- Generator: Adobe Illustrator 16.2.1, SVG Export Plug-In . SVG Version: 6.00 Build 0)  -->
<!DOCTYPE svg PUBLIC "-//W3C//DTD SVG 1.1//EN" "http://www.w3.org/Graphics/SVG/1.1/DTD/svg11.dtd">
<svg version="1.1" id="Layer_1" xmlns="http://www.w3.org/2000/svg" xmlns:xlink="http://www.w3.org/1999/xlink" x="0px" y="0px"
	 width="180px" height="48px" viewBox="0 0 180 48" enable-background="new 0 0 180 48" xml:space="preserve">
<g>
	<path fill="#FFFFFF" d="M97.559,16.121c-1.664-1.338-4.062-2.35-6.936-2.35c-4.143,0-7.787,1.748-9.749,4.168l-0.187,0.229v-3.907
		h-8.583v23.982h8.584V26.302c0-3.685,2.229-5.885,5.971-5.885c3.285,0,5.021,1.634,5.021,4.721v13.106h8.584V22.376
		C100.264,19.669,99.354,17.564,97.559,16.121z"/>
	<g>
		<path fill="#FFFFFF" d="M130.57,17.9l-0.062,0.077l-0.121,0.152v-0.195v-0.209v-3.464h-8.58v23.982h8.584V26.643
			c0-2.525,1.06-4.369,3.144-5.479c1.506-0.801,3.5-1.207,5.935-1.207c1.615,0,2.961,0.188,3.521,0.277v-6.238
			c-0.83-0.146-1.727-0.223-2.658-0.223C136.12,13.773,132.564,15.445,130.57,17.9z"/>
	</g>
	<path fill="#FFFFFF" d="M119.717,19.068v-4.807h-6.208V8.996h-8.585v5.266h-3.545v4.807h3.545v13.455c0,2.135,0.76,3.606,2.318,4.5
		c1.289,0.738,3.143,1.106,5.828,1.16c2.351,0.047,5.27,0.062,6.414,0.062h0.229V31.83h-0.121c-0.669,0.002-2.016,0.004-2.833,0.004
		c-2.556,0-3.254-0.627-3.254-2.914v-9.852H119.717z"/>
	<g>
		<path fill="#FFFFFF" d="M174.714,32.136c0.704-1.517,1.099-3.262,1.177-5.19h-9.248c-0.143,2.312-1.006,4.084-2.513,5.19H174.714z
			"/>
		<path fill="#FFFFFF" d="M159.609,33.438c-4.551-0.003-7.062-2.697-7.062-7.189c0-4.488,2.511-7.174,7.062-7.178v-0.002h14.387
			c-0.625-0.959-1.4-1.798-2.331-2.49c-2.735-2.037-6.79-3.069-12.052-3.072h-0.004c-5.267,0.003-9.32,1.035-12.059,3.072
			c-2.812,2.097-4.236,5.488-4.236,9.67c0,4.183,1.426,7.588,4.236,9.684c2.734,2.037,6.789,3.07,12.053,3.072
			c5.269-0.002,9.322-1.035,12.062-3.072c0.931-0.691,1.706-1.531,2.329-2.492L159.609,33.438L159.609,33.438z"/>
		<path fill="#FFFFFF" d="M164.135,20.369c1.512,1.108,2.373,2.894,2.51,5.218h9.246c-0.072-1.94-0.467-3.696-1.174-5.218H164.135z"
			/>
	</g>
	<path fill="#FFFFFF" d="M26.982,29.31c-0.931,2.625-3.186,4.126-6.577,4.128c-4.552-0.003-7.06-2.697-7.06-7.189
		c0-4.488,2.508-7.174,7.06-7.178c3.408,0,5.669,1.508,6.59,4.149h9.427c-0.539-2.794-1.862-5.08-3.962-6.644
		c-2.733-2.037-6.789-3.069-12.051-3.072h-0.005c-5.264,0.003-9.32,1.035-12.054,3.072c-2.814,2.096-4.241,5.488-4.241,9.67
		s1.427,7.587,4.241,9.684c2.731,2.037,6.786,3.071,12.048,3.071c5.268,0,9.325-1.034,12.061-3.071
		c2.089-1.559,3.411-3.837,3.955-6.62H26.982z"/>
	<path fill="#FFFFFF" d="M59.896,31.066c-1.188,1.525-3.092,2.369-5.637,2.371c-3.792-0.003-6.163-1.873-6.852-5.093h12.428
		l10.59-0.001c0.085-0.673,0.129-1.373,0.129-2.098c-0.002-4.184-1.428-7.576-4.238-9.67c-2.735-2.037-6.789-3.069-12.052-3.072
		h-0.005c-5.265,0.003-9.319,1.035-12.055,3.072c-2.812,2.096-4.24,5.488-4.24,9.67s1.429,7.587,4.24,9.684
		c2.733,2.037,6.788,3.071,12.049,3.071c5.27,0,9.325-1.034,12.062-3.071c1.631-1.218,2.796-2.872,3.485-4.863H59.896z
		 M54.259,19.07c3.806,0.002,6.182,1.877,6.856,5.116H47.4C48.077,20.947,50.454,19.072,54.259,19.07z"/>
</g>
</svg>
